<mxfile host="65bd71144e">
    <diagram id="l3r-Q1mw7pOWZn987oXi" name="Page-1">
        <mxGraphModel dx="1367" dy="1425" grid="1" gridSize="10" guides="1" tooltips="1" connect="1" arrows="1" fold="1" page="1" pageScale="1" pageWidth="827" pageHeight="1169" math="0" shadow="0">
            <root>
                <mxCell id="0"/>
                <mxCell id="1" parent="0"/>
                <mxCell id="3" value="Administrador" style="rounded=0;whiteSpace=wrap;html=1;fillColor=#4b02de;strokeColor=#001DBC;fontColor=#ffffff;fontStyle=0;" parent="1" vertex="1">
                    <mxGeometry x="-370" y="-210" width="120" height="60" as="geometry"/>
                </mxCell>
                <mxCell id="4" value="Avaliador&lt;span style=&quot;color: rgba(0, 0, 0, 0); font-family: monospace; font-size: 0px; text-align: start;&quot;&gt;%3CmxGraphModel%3E%3Croot%3E%3CmxCell%20id%3D%220%22%2F%3E%3CmxCell%20id%3D%221%22%20parent%3D%220%22%2F%3E%3CmxCell%20id%3D%222%22%20value%3D%22Administrador%22%20style%3D%22rounded%3D0%3BwhiteSpace%3Dwrap%3Bhtml%3D1%3B%22%20vertex%3D%221%22%20parent%3D%221%22%3E%3CmxGeometry%20x%3D%2290%22%20y%3D%22100%22%20width%3D%22120%22%20height%3D%2260%22%20as%3D%22geometry%22%2F%3E%3C%2FmxCell%3E%3C%2Froot%3E%3C%2FmxGraphModel%3E&lt;/span&gt;" style="rounded=0;whiteSpace=wrap;html=1;fillColor=#0C3012;strokeColor=#000000;fontColor=#FFFFFF;fontStyle=0;" parent="1" vertex="1">
                    <mxGeometry x="300" y="240" width="120" height="60" as="geometry"/>
                </mxCell>
                <mxCell id="6" value="TipoDePesquisa" style="rounded=0;whiteSpace=wrap;html=1;fillColor=#0c3012;strokeColor=#000000;fontColor=#FFFFFF;fontStyle=0;" parent="1" vertex="1">
                    <mxGeometry x="-505" y="5" width="120" height="60" as="geometry"/>
                </mxCell>
                <mxCell id="7" value="Trabalho" style="rounded=0;whiteSpace=wrap;html=1;fillColor=#0C3012;strokeColor=#000000;fontColor=#FFFFFF;fontStyle=0" parent="1" vertex="1">
                    <mxGeometry x="55" y="5" width="120" height="60" as="geometry"/>
                </mxCell>
                <mxCell id="8" value="AreaDeConhecimento" style="rounded=0;whiteSpace=wrap;html=1;fillColor=#0C3012;strokeColor=#000000;fontColor=#FFFFFF;fontStyle=0;" parent="1" vertex="1">
                    <mxGeometry x="526" y="5" width="120" height="60" as="geometry"/>
                </mxCell>
                <mxCell id="14" value="Avaliador_Area" style="rhombus;whiteSpace=wrap;html=1;fillColor=#7E8C7E;strokeColor=#000000;fontColor=#ffffff;" parent="1" vertex="1">
                    <mxGeometry x="531" y="240" width="110" height="60" as="geometry"/>
                </mxCell>
                <mxCell id="15" value="" style="endArrow=none;html=1;" parent="1" source="14" target="4" edge="1">
                    <mxGeometry width="50" height="50" relative="1" as="geometry">
                        <mxPoint x="561" y="520" as="sourcePoint"/>
                        <mxPoint x="611" y="470" as="targetPoint"/>
                    </mxGeometry>
                </mxCell>
                <mxCell id="16" value="" style="endArrow=none;html=1;exitX=0.5;exitY=0;exitDx=0;exitDy=0;entryX=0.5;entryY=1;entryDx=0;entryDy=0;" parent="1" source="14" target="8" edge="1">
                    <mxGeometry width="50" height="50" relative="1" as="geometry">
                        <mxPoint x="360" y="340" as="sourcePoint"/>
                        <mxPoint x="410" y="100" as="targetPoint"/>
                    </mxGeometry>
                </mxCell>
                <mxCell id="21" value="Avaliacao" style="rhombus;whiteSpace=wrap;html=1;fillColor=#7E8C7E;fontColor=#ffffff;strokeColor=#000000;" parent="1" vertex="1">
                    <mxGeometry x="50" y="240" width="130" height="60" as="geometry"/>
                </mxCell>
                <mxCell id="22" value="" style="endArrow=none;html=1;entryX=1;entryY=0.5;entryDx=0;entryDy=0;exitX=0;exitY=0.5;exitDx=0;exitDy=0;" parent="1" source="4" target="21" edge="1">
                    <mxGeometry width="50" height="50" relative="1" as="geometry">
                        <mxPoint x="360" y="230" as="sourcePoint"/>
                        <mxPoint x="410" y="180" as="targetPoint"/>
                    </mxGeometry>
                </mxCell>
                <mxCell id="23" value="" style="endArrow=none;html=1;entryX=0.5;entryY=1;entryDx=0;entryDy=0;exitX=0.5;exitY=0;exitDx=0;exitDy=0;" parent="1" source="21" target="7" edge="1">
                    <mxGeometry width="50" height="50" relative="1" as="geometry">
                        <mxPoint x="360" y="230" as="sourcePoint"/>
                        <mxPoint x="410" y="180" as="targetPoint"/>
                    </mxGeometry>
                </mxCell>
                <mxCell id="26" value="Questao" style="rounded=0;whiteSpace=wrap;html=1;fillColor=#851818;strokeColor=#000000;fontColor=#FFFFFF;fontStyle=0;" parent="1" vertex="1">
                    <mxGeometry x="-505" y="240" width="120" height="60" as="geometry"/>
                </mxCell>
                <mxCell id="39" value="nome" style="ellipse;whiteSpace=wrap;html=1;fillColor=#0050ef;fontColor=#ffffff;strokeColor=#001DBC;" parent="1" vertex="1">
                    <mxGeometry x="-340" y="-130" width="60" height="40" as="geometry"/>
                </mxCell>
                <mxCell id="40" value="email" style="ellipse;whiteSpace=wrap;html=1;fillColor=#0050ef;fontColor=#ffffff;strokeColor=#001DBC;" parent="1" vertex="1">
                    <mxGeometry x="-340" y="-270" width="60" height="30" as="geometry"/>
                </mxCell>
                <mxCell id="41" value="senha" style="ellipse;whiteSpace=wrap;html=1;fillColor=#0050ef;fontColor=#ffffff;strokeColor=#001DBC;" parent="1" vertex="1">
                    <mxGeometry x="-450" y="-200" width="60" height="40" as="geometry"/>
                </mxCell>
                <mxCell id="44" value="" style="endArrow=none;html=1;entryX=0;entryY=0.5;entryDx=0;entryDy=0;exitX=1;exitY=0.5;exitDx=0;exitDy=0;" parent="1" source="41" target="3" edge="1">
                    <mxGeometry width="50" height="50" relative="1" as="geometry">
                        <mxPoint x="-620" y="-360" as="sourcePoint"/>
                        <mxPoint x="-570" y="-410" as="targetPoint"/>
                    </mxGeometry>
                </mxCell>
                <mxCell id="46" value="" style="endArrow=none;html=1;entryX=0.5;entryY=0;entryDx=0;entryDy=0;exitX=0.5;exitY=1;exitDx=0;exitDy=0;" parent="1" source="3" target="39" edge="1">
                    <mxGeometry width="50" height="50" relative="1" as="geometry">
                        <mxPoint x="-380" y="-160" as="sourcePoint"/>
                        <mxPoint x="-350" y="-160" as="targetPoint"/>
                    </mxGeometry>
                </mxCell>
                <mxCell id="47" value="descricao" style="ellipse;whiteSpace=wrap;html=1;fillColor=#26A343;strokeColor=#000000;" parent="1" vertex="1">
                    <mxGeometry x="556" y="-70" width="60" height="40" as="geometry"/>
                </mxCell>
                <mxCell id="48" value="" style="endArrow=none;html=1;exitX=0.5;exitY=1;exitDx=0;exitDy=0;entryX=0.5;entryY=0;entryDx=0;entryDy=0;" parent="1" source="47" target="8" edge="1">
                    <mxGeometry width="50" height="50" relative="1" as="geometry">
                        <mxPoint x="565" y="-110" as="sourcePoint"/>
                        <mxPoint x="615" y="-160" as="targetPoint"/>
                    </mxGeometry>
                </mxCell>
                <mxCell id="55" value="criterio" style="ellipse;whiteSpace=wrap;html=1;fillColor=#26A343;strokeColor=#000000;" parent="1" vertex="1">
                    <mxGeometry x="-520" y="330" width="60" height="40" as="geometry"/>
                </mxCell>
                <mxCell id="56" value="" style="endArrow=none;html=1;entryX=0.12;entryY=1.029;entryDx=0;entryDy=0;exitX=0.5;exitY=0;exitDx=0;exitDy=0;entryPerimeter=0;" parent="1" source="55" target="183" edge="1">
                    <mxGeometry width="50" height="50" relative="1" as="geometry">
                        <mxPoint x="-350" y="402.5" as="sourcePoint"/>
                        <mxPoint x="-300" y="352.5" as="targetPoint"/>
                    </mxGeometry>
                </mxCell>
                <mxCell id="57" value="descricao" style="ellipse;whiteSpace=wrap;html=1;fillColor=#26A343;strokeColor=#000000;" parent="1" vertex="1">
                    <mxGeometry x="-475" y="-70" width="60" height="40" as="geometry"/>
                </mxCell>
                <mxCell id="58" value="" style="endArrow=none;html=1;entryX=0.5;entryY=0;entryDx=0;entryDy=0;exitX=0.5;exitY=1;exitDx=0;exitDy=0;" parent="1" source="57" target="6" edge="1">
                    <mxGeometry width="50" height="50" relative="1" as="geometry">
                        <mxPoint x="-440" y="255" as="sourcePoint"/>
                        <mxPoint x="-390" y="205" as="targetPoint"/>
                    </mxGeometry>
                </mxCell>
                <mxCell id="62" value="" style="endArrow=none;html=1;entryX=0;entryY=0.5;entryDx=0;entryDy=0;exitX=1;exitY=0.5;exitDx=0;exitDy=0;" parent="1" target="21" edge="1">
                    <mxGeometry width="50" height="50" relative="1" as="geometry">
                        <mxPoint x="5" y="270" as="sourcePoint"/>
                        <mxPoint x="55" y="262.5" as="targetPoint"/>
                    </mxGeometry>
                </mxCell>
                <mxCell id="67" value="id_tipoPesq" style="ellipse;whiteSpace=wrap;html=1;fillColor=#26A343;strokeColor=#000000;" parent="1" vertex="1">
                    <mxGeometry x="-450" y="330" width="70" height="40" as="geometry"/>
                </mxCell>
                <mxCell id="68" value="" style="endArrow=none;html=1;entryX=0.75;entryY=1;entryDx=0;entryDy=0;exitX=0.5;exitY=0;exitDx=0;exitDy=0;" parent="1" source="67" target="183" edge="1">
                    <mxGeometry width="50" height="50" relative="1" as="geometry">
                        <mxPoint x="-210" y="400" as="sourcePoint"/>
                        <mxPoint x="-160" y="350" as="targetPoint"/>
                    </mxGeometry>
                </mxCell>
                <mxCell id="69" value="" style="endArrow=none;html=1;entryX=0.5;entryY=1;entryDx=0;entryDy=0;exitX=0.5;exitY=0;exitDx=0;exitDy=0;startArrow=none;" parent="1" source="152" target="6" edge="1">
                    <mxGeometry width="50" height="50" relative="1" as="geometry">
                        <mxPoint x="-70" y="255" as="sourcePoint"/>
                        <mxPoint x="-20" y="205" as="targetPoint"/>
                    </mxGeometry>
                </mxCell>
                <mxCell id="71" value="" style="endArrow=none;html=1;entryX=0.5;entryY=1;entryDx=0;entryDy=0;exitX=0.5;exitY=0;exitDx=0;exitDy=0;" parent="1" source="3" target="40" edge="1">
                    <mxGeometry width="50" height="50" relative="1" as="geometry">
                        <mxPoint x="-460" y="-270" as="sourcePoint"/>
                        <mxPoint x="-410" y="-320" as="targetPoint"/>
                    </mxGeometry>
                </mxCell>
                <mxCell id="77" value="" style="endArrow=none;html=1;entryX=1;entryY=0.5;entryDx=0;entryDy=0;exitX=0;exitY=0.5;exitDx=0;exitDy=0;startArrow=none;" parent="1" source="164" target="7" edge="1">
                    <mxGeometry width="50" height="50" relative="1" as="geometry">
                        <mxPoint x="340" y="90" as="sourcePoint"/>
                        <mxPoint x="390" y="40" as="targetPoint"/>
                    </mxGeometry>
                </mxCell>
                <mxCell id="79" value="" style="endArrow=none;html=1;entryX=0;entryY=0.5;entryDx=0;entryDy=0;exitX=1;exitY=0;exitDx=0;exitDy=0;" parent="1" source="7" target="112" edge="1">
                    <mxGeometry width="50" height="50" relative="1" as="geometry">
                        <mxPoint x="340" y="90" as="sourcePoint"/>
                        <mxPoint x="265" y="-110" as="targetPoint"/>
                    </mxGeometry>
                </mxCell>
                <mxCell id="84" value="nome" style="ellipse;whiteSpace=wrap;html=1;fillColor=#26A343;strokeColor=#000000;" parent="1" vertex="1">
                    <mxGeometry x="215" y="310" width="60" height="40" as="geometry"/>
                </mxCell>
                <mxCell id="85" value="senha" style="ellipse;whiteSpace=wrap;html=1;fillColor=#26A343;strokeColor=#000000;" parent="1" vertex="1">
                    <mxGeometry x="414" y="360" width="60" height="40" as="geometry"/>
                </mxCell>
                <mxCell id="86" value="email" style="ellipse;whiteSpace=wrap;html=1;fillColor=#26A343;strokeColor=#000000;" parent="1" vertex="1">
                    <mxGeometry x="330" y="415" width="60" height="30" as="geometry"/>
                </mxCell>
                <mxCell id="87" value="CPF" style="ellipse;whiteSpace=wrap;html=1;fillColor=#26A343;strokeColor=#000000;" parent="1" vertex="1">
                    <mxGeometry x="275" y="390" width="60" height="40" as="geometry"/>
                </mxCell>
                <mxCell id="88" value="cidade_instituicao" style="ellipse;whiteSpace=wrap;html=1;fillColor=#26A343;strokeColor=#000000;" parent="1" vertex="1">
                    <mxGeometry x="430" y="310" width="110" height="40" as="geometry"/>
                </mxCell>
                <mxCell id="90" value="lattes" style="ellipse;whiteSpace=wrap;html=1;fillColor=#26A343;strokeColor=#000000;" parent="1" vertex="1">
                    <mxGeometry x="240" y="360" width="60" height="30" as="geometry"/>
                </mxCell>
                <mxCell id="91" value="telefone" style="ellipse;whiteSpace=wrap;html=1;fillColor=#26A343;strokeColor=#000000;" parent="1" vertex="1">
                    <mxGeometry x="390" y="400" width="60" height="30" as="geometry"/>
                </mxCell>
                <mxCell id="95" value="titulo" style="ellipse;whiteSpace=wrap;html=1;fillColor=#26A343;strokeColor=#000000;" parent="1" vertex="1">
                    <mxGeometry x="-15" y="-290" width="85" height="30" as="geometry"/>
                </mxCell>
                <mxCell id="97" value="" style="endArrow=none;html=1;entryX=0;entryY=0.5;entryDx=0;entryDy=0;exitX=1;exitY=0.5;exitDx=0;exitDy=0;startArrow=none;" parent="1" source="162" target="7" edge="1">
                    <mxGeometry width="50" height="50" relative="1" as="geometry">
                        <mxPoint x="20" y="90" as="sourcePoint"/>
                        <mxPoint x="70" y="40" as="targetPoint"/>
                    </mxGeometry>
                </mxCell>
                <mxCell id="98" value="id_tipoPesq" style="ellipse;whiteSpace=wrap;html=1;fillColor=#26A343;strokeColor=#000000;" parent="1" vertex="1">
                    <mxGeometry x="-185" y="-65" width="70" height="40" as="geometry"/>
                </mxCell>
                <mxCell id="100" value="" style="endArrow=none;html=1;entryX=0;entryY=0.25;entryDx=0;entryDy=0;exitX=1;exitY=1;exitDx=0;exitDy=0;" parent="1" source="98" target="7" edge="1">
                    <mxGeometry width="50" height="50" relative="1" as="geometry">
                        <mxPoint x="-120" y="70" as="sourcePoint"/>
                        <mxPoint x="-70" y="20" as="targetPoint"/>
                    </mxGeometry>
                </mxCell>
                <mxCell id="101" value="&lt;font color=&quot;#000000&quot;&gt;nome_coorientador&lt;/font&gt;" style="ellipse;whiteSpace=wrap;html=1;fillColor=#26A343;strokeColor=#000000;" parent="1" vertex="1">
                    <mxGeometry x="-205" y="-160" width="110" height="50" as="geometry"/>
                </mxCell>
                <mxCell id="102" value="email_coorientador" style="ellipse;whiteSpace=wrap;html=1;fillColor=#26A343;strokeColor=#000000;" parent="1" vertex="1">
                    <mxGeometry x="-125" y="-290" width="110" height="50" as="geometry"/>
                </mxCell>
                <mxCell id="103" value="CPF_coorientador" style="ellipse;whiteSpace=wrap;html=1;fillColor=#26A343;strokeColor=#000000;" parent="1" vertex="1">
                    <mxGeometry x="430" y="-170" width="110" height="50" as="geometry"/>
                </mxCell>
                <mxCell id="106" value="&lt;font color=&quot;#000000&quot;&gt;CPF_orientador&lt;/font&gt;" style="ellipse;whiteSpace=wrap;html=1;fillColor=#26a343;strokeColor=#000000;fontColor=#ffffff;" parent="1" vertex="1">
                    <mxGeometry x="60" y="-260" width="110" height="50" as="geometry"/>
                </mxCell>
                <mxCell id="108" value="nivel" style="ellipse;whiteSpace=wrap;html=1;fillColor=#26A343;strokeColor=#000000;" parent="1" vertex="1">
                    <mxGeometry x="190" y="-240" width="85" height="30" as="geometry"/>
                </mxCell>
                <mxCell id="110" value="email_orientador" style="ellipse;whiteSpace=wrap;html=1;fillColor=#26A343;strokeColor=#000000;" parent="1" vertex="1">
                    <mxGeometry x="375" y="-270" width="110" height="50" as="geometry"/>
                </mxCell>
                <mxCell id="111" value="descricaoMDIS" style="ellipse;whiteSpace=wrap;html=1;fillColor=#26A343;strokeColor=#000000;" parent="1" vertex="1">
                    <mxGeometry x="400" y="-65" width="100" height="40" as="geometry"/>
                </mxCell>
                <mxCell id="112" value="id_Area" style="ellipse;whiteSpace=wrap;html=1;fillColor=#26A343;strokeColor=#000000;" parent="1" vertex="1">
                    <mxGeometry x="315" y="-65" width="70" height="30" as="geometry"/>
                </mxCell>
                <mxCell id="113" value="estudantes" style="ellipse;whiteSpace=wrap;html=1;fillColor=#26A343;strokeColor=#000000;" parent="1" vertex="1">
                    <mxGeometry x="290" y="-215" width="85" height="30" as="geometry"/>
                </mxCell>
                <mxCell id="114" value="nome_orientador" style="ellipse;whiteSpace=wrap;html=1;gradientColor=none;fillColor=#26A343;strokeColor=#000000;" parent="1" vertex="1">
                    <mxGeometry x="-200" y="-240" width="110" height="50" as="geometry"/>
                </mxCell>
                <mxCell id="116" value="" style="endArrow=none;html=1;entryX=1;entryY=0;entryDx=0;entryDy=0;" parent="1" source="111" target="7" edge="1">
                    <mxGeometry width="50" height="50" relative="1" as="geometry">
                        <mxPoint x="380" y="-110" as="sourcePoint"/>
                        <mxPoint x="380" y="-159.99999999999977" as="targetPoint"/>
                    </mxGeometry>
                </mxCell>
                <mxCell id="121" value="" style="endArrow=none;html=1;entryX=0.25;entryY=0;entryDx=0;entryDy=0;exitX=0.5;exitY=1;exitDx=0;exitDy=0;" parent="1" source="102" target="7" edge="1">
                    <mxGeometry width="50" height="50" relative="1" as="geometry">
                        <mxPoint x="29.998737341529022" y="-145.85786437626894" as="sourcePoint"/>
                        <mxPoint x="95.25" y="-130" as="targetPoint"/>
                    </mxGeometry>
                </mxCell>
                <mxCell id="122" value="" style="endArrow=none;html=1;entryX=0.75;entryY=0;entryDx=0;entryDy=0;exitX=0.376;exitY=1.075;exitDx=0;exitDy=0;exitPerimeter=0;" parent="1" source="113" target="7" edge="1">
                    <mxGeometry width="50" height="50" relative="1" as="geometry">
                        <mxPoint x="140" y="-170" as="sourcePoint"/>
                        <mxPoint x="140" y="-70" as="targetPoint"/>
                    </mxGeometry>
                </mxCell>
                <mxCell id="123" value="" style="endArrow=none;html=1;entryX=1;entryY=0;entryDx=0;entryDy=0;exitX=0.5;exitY=1;exitDx=0;exitDy=0;" parent="1" source="110" target="7" edge="1">
                    <mxGeometry width="50" height="50" relative="1" as="geometry">
                        <mxPoint x="91" y="-206" as="sourcePoint"/>
                        <mxPoint x="126" y="-151" as="targetPoint"/>
                    </mxGeometry>
                </mxCell>
                <mxCell id="126" value="" style="endArrow=none;html=1;entryX=0;entryY=0;entryDx=0;entryDy=0;exitX=1;exitY=1;exitDx=0;exitDy=0;" parent="1" source="101" target="7" edge="1">
                    <mxGeometry width="50" height="50" relative="1" as="geometry">
                        <mxPoint x="-105" y="-320" as="sourcePoint"/>
                        <mxPoint x="-260" y="-120" as="targetPoint"/>
                    </mxGeometry>
                </mxCell>
                <mxCell id="127" value="" style="endArrow=none;html=1;fontFamily=Helvetica;fontSize=12;fontColor=default;entryX=0;entryY=0.5;entryDx=0;entryDy=0;exitX=1;exitY=0;exitDx=0;exitDy=0;" parent="1" source="7" target="103" edge="1">
                    <mxGeometry width="50" height="50" relative="1" as="geometry">
                        <mxPoint x="-60" y="50" as="sourcePoint"/>
                        <mxPoint x="-10" as="targetPoint"/>
                    </mxGeometry>
                </mxCell>
                <mxCell id="128" value="" style="endArrow=none;html=1;entryX=0;entryY=0;entryDx=0;entryDy=0;exitX=1;exitY=1;exitDx=0;exitDy=0;" parent="1" source="114" target="7" edge="1">
                    <mxGeometry width="50" height="50" relative="1" as="geometry">
                        <mxPoint x="-115" y="-270" as="sourcePoint"/>
                        <mxPoint x="70" y="-70" as="targetPoint"/>
                    </mxGeometry>
                </mxCell>
                <mxCell id="131" value="" style="endArrow=none;html=1;entryX=0.25;entryY=0;entryDx=0;entryDy=0;exitX=0.5;exitY=1;exitDx=0;exitDy=0;startArrow=none;" parent="1" target="7" edge="1">
                    <mxGeometry width="50" height="50" relative="1" as="geometry">
                        <mxPoint x="60" y="-100" as="sourcePoint"/>
                        <mxPoint x="70" y="-70" as="targetPoint"/>
                    </mxGeometry>
                </mxCell>
                <mxCell id="132" value="" style="endArrow=none;html=1;entryX=0.5;entryY=0;entryDx=0;entryDy=0;exitX=0.5;exitY=1;exitDx=0;exitDy=0;" parent="1" source="106" target="7" edge="1">
                    <mxGeometry width="50" height="50" relative="1" as="geometry">
                        <mxPoint x="-65" y="-240" as="sourcePoint"/>
                        <mxPoint x="80" y="-60" as="targetPoint"/>
                    </mxGeometry>
                </mxCell>
                <mxCell id="133" value="" style="endArrow=none;html=1;entryX=0.75;entryY=0;entryDx=0;entryDy=0;exitX=0.5;exitY=1;exitDx=0;exitDy=0;" parent="1" source="108" target="7" edge="1">
                    <mxGeometry width="50" height="50" relative="1" as="geometry">
                        <mxPoint x="145" y="-290" as="sourcePoint"/>
                        <mxPoint x="130" y="-70" as="targetPoint"/>
                    </mxGeometry>
                </mxCell>
                <mxCell id="136" value="" style="endArrow=none;html=1;entryX=1;entryY=0.5;entryDx=0;entryDy=0;exitX=0.067;exitY=0.983;exitDx=0;exitDy=0;exitPerimeter=0;" parent="1" source="4" target="84" edge="1">
                    <mxGeometry width="50" height="50" relative="1" as="geometry">
                        <mxPoint x="290" y="265" as="sourcePoint"/>
                        <mxPoint x="420" y="289" as="targetPoint"/>
                    </mxGeometry>
                </mxCell>
                <mxCell id="137" value="" style="endArrow=none;html=1;entryX=0.5;entryY=0;entryDx=0;entryDy=0;" parent="1" source="4" target="87" edge="1">
                    <mxGeometry width="50" height="50" relative="1" as="geometry">
                        <mxPoint x="290" y="265" as="sourcePoint"/>
                        <mxPoint x="210" y="305" as="targetPoint"/>
                    </mxGeometry>
                </mxCell>
                <mxCell id="138" value="" style="endArrow=none;html=1;entryX=0.5;entryY=0;entryDx=0;entryDy=0;exitX=0.25;exitY=1;exitDx=0;exitDy=0;" parent="1" source="4" target="90" edge="1">
                    <mxGeometry width="50" height="50" relative="1" as="geometry">
                        <mxPoint x="290" y="265" as="sourcePoint"/>
                        <mxPoint x="235.93594180730543" y="350.67540823710715" as="targetPoint"/>
                    </mxGeometry>
                </mxCell>
                <mxCell id="139" value="" style="endArrow=none;html=1;entryX=0;entryY=0;entryDx=0;entryDy=0;exitX=1;exitY=1;exitDx=0;exitDy=0;" parent="1" source="4" target="88" edge="1">
                    <mxGeometry width="50" height="50" relative="1" as="geometry">
                        <mxPoint x="410" y="265" as="sourcePoint"/>
                        <mxPoint x="275" y="405" as="targetPoint"/>
                    </mxGeometry>
                </mxCell>
                <mxCell id="140" value="" style="endArrow=none;html=1;" parent="1" source="4" target="85" edge="1">
                    <mxGeometry width="50" height="50" relative="1" as="geometry">
                        <mxPoint x="410" y="265" as="sourcePoint"/>
                        <mxPoint x="554.9999999999995" y="345" as="targetPoint"/>
                    </mxGeometry>
                </mxCell>
                <mxCell id="141" value="" style="endArrow=none;html=1;entryX=0.5;entryY=0;entryDx=0;entryDy=0;" parent="1" source="4" target="91" edge="1">
                    <mxGeometry width="50" height="50" relative="1" as="geometry">
                        <mxPoint x="410" y="265" as="sourcePoint"/>
                        <mxPoint x="540" y="405" as="targetPoint"/>
                    </mxGeometry>
                </mxCell>
                <mxCell id="142" value="" style="endArrow=none;html=1;entryX=0.5;entryY=0;entryDx=0;entryDy=0;exitX=0.5;exitY=1;exitDx=0;exitDy=0;" parent="1" source="4" target="86" edge="1">
                    <mxGeometry width="50" height="50" relative="1" as="geometry">
                        <mxPoint x="350" y="265" as="sourcePoint"/>
                        <mxPoint x="275" y="405" as="targetPoint"/>
                    </mxGeometry>
                </mxCell>
                <mxCell id="146" value="" style="endArrow=none;html=1;exitX=1;exitY=0.5;exitDx=0;exitDy=0;entryX=0.25;entryY=1;entryDx=0;entryDy=0;" parent="1" source="26" target="176" edge="1">
                    <mxGeometry width="50" height="50" relative="1" as="geometry">
                        <mxPoint x="-375" y="220" as="sourcePoint"/>
                        <mxPoint x="-310" y="270" as="targetPoint"/>
                    </mxGeometry>
                </mxCell>
                <mxCell id="148" value="&lt;span style=&quot;font-size: 22px;&quot;&gt;1&lt;/span&gt;" style="text;html=1;strokeColor=none;fillColor=none;align=center;verticalAlign=middle;whiteSpace=wrap;rounded=0;" parent="1" vertex="1">
                    <mxGeometry x="-390" y="240" width="60" height="30" as="geometry"/>
                </mxCell>
                <mxCell id="153" value="" style="endArrow=none;html=1;entryX=0.5;entryY=1;entryDx=0;entryDy=0;exitX=0.5;exitY=0;exitDx=0;exitDy=0;" parent="1" source="26" target="152" edge="1">
                    <mxGeometry width="50" height="50" relative="1" as="geometry">
                        <mxPoint x="-435" y="250" as="sourcePoint"/>
                        <mxPoint x="-435" y="220" as="targetPoint"/>
                    </mxGeometry>
                </mxCell>
                <mxCell id="152" value="Contém" style="rhombus;whiteSpace=wrap;html=1;fillColor=#7E8C7E;fontColor=#ffffff;strokeColor=#000000;" parent="1" vertex="1">
                    <mxGeometry x="-510" y="115" width="130" height="60" as="geometry"/>
                </mxCell>
                <mxCell id="155" value="&lt;span style=&quot;font-size: 22px;&quot;&gt;N&lt;/span&gt;" style="text;html=1;strokeColor=none;fillColor=none;align=center;verticalAlign=middle;whiteSpace=wrap;rounded=0;" parent="1" vertex="1">
                    <mxGeometry x="-460" y="170" width="60" height="30" as="geometry"/>
                </mxCell>
                <mxCell id="156" value="1" style="text;html=1;strokeColor=none;fillColor=none;align=center;verticalAlign=middle;whiteSpace=wrap;rounded=0;fontSize=22;" parent="1" vertex="1">
                    <mxGeometry x="-460" y="90" width="60" height="30" as="geometry"/>
                </mxCell>
                <mxCell id="163" value="" style="endArrow=none;html=1;entryX=0;entryY=0.5;entryDx=0;entryDy=0;exitX=1;exitY=0.5;exitDx=0;exitDy=0;" parent="1" source="6" target="162" edge="1">
                    <mxGeometry width="50" height="50" relative="1" as="geometry">
                        <mxPoint x="-385" y="35" as="sourcePoint"/>
                        <mxPoint x="55" y="35" as="targetPoint"/>
                    </mxGeometry>
                </mxCell>
                <mxCell id="162" value="Contém" style="rhombus;whiteSpace=wrap;html=1;fillColor=#7E8C7E;fontColor=#ffffff;strokeColor=#000000;" parent="1" vertex="1">
                    <mxGeometry x="-225" y="5" width="130" height="60" as="geometry"/>
                </mxCell>
                <mxCell id="165" value="" style="endArrow=none;html=1;entryX=1;entryY=0.5;entryDx=0;entryDy=0;exitX=0;exitY=0.5;exitDx=0;exitDy=0;" parent="1" source="8" target="164" edge="1">
                    <mxGeometry width="50" height="50" relative="1" as="geometry">
                        <mxPoint x="526" y="40" as="sourcePoint"/>
                        <mxPoint x="175" y="35" as="targetPoint"/>
                    </mxGeometry>
                </mxCell>
                <mxCell id="164" value="Contém" style="rhombus;whiteSpace=wrap;html=1;fillColor=#7E8C7E;fontColor=#ffffff;strokeColor=#000000;" parent="1" vertex="1">
                    <mxGeometry x="307.5" y="5" width="130" height="60" as="geometry"/>
                </mxCell>
                <mxCell id="166" value="1" style="text;html=1;strokeColor=none;fillColor=none;align=center;verticalAlign=middle;whiteSpace=wrap;rounded=0;fontSize=22;" parent="1" vertex="1">
                    <mxGeometry x="-260" y="5" width="60" height="30" as="geometry"/>
                </mxCell>
                <mxCell id="167" value="&lt;span style=&quot;font-size: 22px;&quot;&gt;N&lt;/span&gt;" style="text;html=1;strokeColor=none;fillColor=none;align=center;verticalAlign=middle;whiteSpace=wrap;rounded=0;" parent="1" vertex="1">
                    <mxGeometry x="-120" width="60" height="30" as="geometry"/>
                </mxCell>
                <mxCell id="169" value="1" style="text;html=1;strokeColor=none;fillColor=none;align=center;verticalAlign=middle;whiteSpace=wrap;rounded=0;fontSize=22;" parent="1" vertex="1">
                    <mxGeometry x="400" width="60" height="30" as="geometry"/>
                </mxCell>
                <mxCell id="170" value="&lt;span style=&quot;font-size: 22px;&quot;&gt;N&lt;/span&gt;" style="text;html=1;strokeColor=none;fillColor=none;align=center;verticalAlign=middle;whiteSpace=wrap;rounded=0;" parent="1" vertex="1">
                    <mxGeometry x="275" width="60" height="30" as="geometry"/>
                </mxCell>
                <mxCell id="171" value="&lt;span style=&quot;font-size: 22px;&quot;&gt;N&lt;/span&gt;" style="text;html=1;strokeColor=none;fillColor=none;align=center;verticalAlign=middle;whiteSpace=wrap;rounded=0;" parent="1" vertex="1">
                    <mxGeometry x="540" y="210" width="60" height="30" as="geometry"/>
                </mxCell>
                <mxCell id="172" value="&lt;span style=&quot;font-size: 22px;&quot;&gt;N&lt;/span&gt;" style="text;html=1;strokeColor=none;fillColor=none;align=center;verticalAlign=middle;whiteSpace=wrap;rounded=0;" parent="1" vertex="1">
                    <mxGeometry x="500" y="240" width="60" height="30" as="geometry"/>
                </mxCell>
                <mxCell id="173" value="&lt;span style=&quot;font-size: 22px;&quot;&gt;N&lt;/span&gt;" style="text;html=1;strokeColor=none;fillColor=none;align=center;verticalAlign=middle;whiteSpace=wrap;rounded=0;" parent="1" vertex="1">
                    <mxGeometry x="95" y="210" width="60" height="30" as="geometry"/>
                </mxCell>
                <mxCell id="174" value="&lt;span style=&quot;font-size: 22px;&quot;&gt;N&lt;/span&gt;" style="text;html=1;strokeColor=none;fillColor=none;align=center;verticalAlign=middle;whiteSpace=wrap;rounded=0;" parent="1" vertex="1">
                    <mxGeometry x="147.5" y="240" width="60" height="30" as="geometry"/>
                </mxCell>
                <mxCell id="176" value="N" style="text;html=1;strokeColor=none;fillColor=none;align=center;verticalAlign=middle;whiteSpace=wrap;rounded=0;fontSize=22;" parent="1" vertex="1">
                    <mxGeometry x="30" y="240" width="60" height="30" as="geometry"/>
                </mxCell>
                <mxCell id="182" value="TipoDePesquisa" style="rounded=0;whiteSpace=wrap;html=1;fillColor=#0C3012;strokeColor=#000000;fontColor=#FFFFFF;fontStyle=0;" parent="1" vertex="1">
                    <mxGeometry x="-505" y="5" width="120" height="60" as="geometry"/>
                </mxCell>
                <mxCell id="183" value="Questao" style="rounded=0;whiteSpace=wrap;html=1;fillColor=#0C3012;strokeColor=#000000;fontColor=#FFFFFF;fontStyle=0;" parent="1" vertex="1">
                    <mxGeometry x="-505" y="240" width="120" height="60" as="geometry"/>
                </mxCell>
                <mxCell id="184" value="&lt;span style=&quot;font-size: 22px;&quot;&gt;1&lt;/span&gt;" style="text;html=1;strokeColor=none;fillColor=none;align=center;verticalAlign=middle;whiteSpace=wrap;rounded=0;" parent="1" vertex="1">
                    <mxGeometry x="115" y="70" width="60" height="30" as="geometry"/>
                </mxCell>
                <mxCell id="185" value="&lt;span style=&quot;font-size: 22px;&quot;&gt;1&lt;/span&gt;" style="text;html=1;strokeColor=none;fillColor=none;align=center;verticalAlign=middle;whiteSpace=wrap;rounded=0;" parent="1" vertex="1">
                    <mxGeometry x="255" y="240" width="60" height="30" as="geometry"/>
                </mxCell>
                <mxCell id="190" value="&lt;font color=&quot;#000000&quot;&gt;nota_resumo&lt;/font&gt;" style="ellipse;whiteSpace=wrap;html=1;fillColor=#26a343;strokeColor=#000000;fontColor=#ffffff;" vertex="1" parent="1">
                    <mxGeometry x="155" y="-290" width="85" height="30" as="geometry"/>
                </mxCell>
                <mxCell id="192" value="" style="endArrow=none;html=1;" edge="1" parent="1" source="190" target="7">
                    <mxGeometry width="50" height="50" relative="1" as="geometry">
                        <mxPoint x="242.5" y="-200" as="sourcePoint"/>
                        <mxPoint x="130" as="targetPoint"/>
                    </mxGeometry>
                </mxCell>
                <mxCell id="193" value="&lt;font color=&quot;#000000&quot;&gt;instituicao&lt;/font&gt;" style="ellipse;whiteSpace=wrap;html=1;fillColor=#26a343;strokeColor=#000000;fontColor=#ffffff;" vertex="1" parent="1">
                    <mxGeometry x="-205" y="-105" width="85" height="30" as="geometry"/>
                </mxCell>
                <mxCell id="194" value="" style="endArrow=none;html=1;entryX=0;entryY=0;entryDx=0;entryDy=0;exitX=1;exitY=0.5;exitDx=0;exitDy=0;" edge="1" parent="1" source="193" target="7">
                    <mxGeometry width="50" height="50" relative="1" as="geometry">
                        <mxPoint x="37.5" y="-250" as="sourcePoint"/>
                        <mxPoint x="95" y="15" as="targetPoint"/>
                    </mxGeometry>
                </mxCell>
                <mxCell id="196" value="" style="endArrow=none;html=1;exitX=0.5;exitY=1;exitDx=0;exitDy=0;" edge="1" parent="1" source="95">
                    <mxGeometry width="50" height="50" relative="1" as="geometry">
                        <mxPoint x="27.5" y="-260" as="sourcePoint"/>
                        <mxPoint x="60" y="-100" as="targetPoint"/>
                    </mxGeometry>
                </mxCell>
                <mxCell id="197" value="ativo" style="ellipse;whiteSpace=wrap;html=1;fillColor=#26a343;strokeColor=#000000;fontColor=#ffffff;" vertex="1" parent="1">
                    <mxGeometry x="215" y="80" width="85" height="30" as="geometry"/>
                </mxCell>
                <mxCell id="198" value="" style="endArrow=none;html=1;entryX=1;entryY=1;entryDx=0;entryDy=0;" edge="1" parent="1" source="197" target="7">
                    <mxGeometry width="50" height="50" relative="1" as="geometry">
                        <mxPoint x="-115.25126265847098" y="-20.857864376269163" as="sourcePoint"/>
                        <mxPoint x="65" y="30" as="targetPoint"/>
                    </mxGeometry>
                </mxCell>
            </root>
        </mxGraphModel>
    </diagram>
</mxfile>